<svg width="502" height="354" xmlns="http://www.w3.org/2000/svg" xmlns:xlink="http://www.w3.org/1999/xlink" xml:space="preserve" overflow="hidden"><defs><clipPath id="clip0"><rect x="229" y="670" width="502" height="354"/></clipPath></defs><g clip-path="url(#clip0)" transform="translate(-229 -670)"><path d="M204.391 299.195 192.483 299.195 190.19 283.602 193.866 283.012 196.43 282.598 201.819 281.73 204.391 299.195Z" stroke="#1D1D1B" stroke-width="0.843301" stroke-miterlimit="10" fill="none" transform="matrix(1 0 0 1.00139 229 670.172)"/><path d="M196.43 282.598 193.866 283.012 189.734 254.972 192.298 254.559 196.43 282.598Z" stroke="#1D1D1B" stroke-width="0.843301" stroke-miterlimit="10" fill="none" transform="matrix(1 0 0 1.00139 229 670.172)"/><path d="M217.201 253.985 219.789 253.985 219.789 282.573 217.201 282.573Z" stroke="#1D1D1B" stroke-width="0.843301" stroke-miterlimit="10" fill="none" transform="matrix(1 0 0 1.00139 229 670.172)"/><path d="M246.961 254.997 242.643 283.113 240.088 282.683 244.405 254.567 246.961 254.997Z" stroke="#1D1D1B" stroke-width="0.843301" stroke-miterlimit="10" fill="none" transform="matrix(1 0 0 1.00139 229 670.172)"/><path d="M224.377 343.974C224.377 346.091 222.733 347.802 220.709 347.802 219.41 347.802 218.271 347.103 217.622 346.04L221.029 346.04C221.603 346.04 222.117 345.804 222.488 345.433 222.867 345.062 223.095 344.539 223.095 343.974 223.095 342.827 222.168 341.899 221.029 341.899L217.622 341.899C217.656 341.832 217.698 341.773 217.74 341.714 218.406 340.761 219.494 340.137 220.709 340.137 222.733 340.137 224.377 341.849 224.377 343.974Z" stroke="#1D1D1B" stroke-width="0.843301" stroke-miterlimit="10" fill="none" transform="matrix(1 0 0 1.00139 229 670.172)"/><path d="M210.488 346.04 213.659 346.04C213.009 347.103 211.871 347.802 210.572 347.802 208.548 347.802 206.904 346.091 206.904 343.974 206.904 341.857 208.548 340.137 210.572 340.137 211.871 340.137 213.009 340.837 213.659 341.899L210.488 341.899C209.914 341.899 209.4 342.127 209.029 342.507 208.649 342.886 208.422 343.4 208.422 343.974 208.422 345.112 209.349 346.04 210.488 346.04Z" stroke="#1D1D1B" stroke-width="0.843301" stroke-miterlimit="10" fill="none" transform="matrix(1 0 0 1.00139 229 670.172)"/><path d="M213.777 339.133 217.74 339.133 217.74 341.899 213.777 341.899Z" stroke="#1D1D1B" stroke-width="0.843301" stroke-miterlimit="10" fill="none" transform="matrix(1 0 0 1.00139 229 670.172)"/><path d="M259.323 344.126C259.323 346.242 257.687 347.963 255.655 347.963 254.365 347.963 253.226 347.263 252.569 346.2L255.975 346.2C256.549 346.2 257.063 345.973 257.443 345.593 257.814 345.214 258.042 344.699 258.042 344.126 258.042 342.987 257.122 342.06 255.975 342.06L252.569 342.06C252.602 341.992 252.644 341.933 252.687 341.874 253.353 340.913 254.432 340.289 255.655 340.289 257.687 340.289 259.323 342.009 259.323 344.126Z" stroke="#1D1D1B" stroke-width="0.843301" stroke-miterlimit="10" fill="none" transform="matrix(1 0 0 1.00139 229 670.172)"/><path d="M284.175 290.222 280.709 299.195 273.229 299.195 277.741 287.506C279.411 289.185 281.671 290.222 284.175 290.222Z" stroke="#1D1D1B" stroke-width="0.843301" stroke-miterlimit="10" fill="none" transform="matrix(1 0 0 1.00139 229 670.172)"/><path d="M245.434 346.2 248.605 346.2C247.956 347.263 246.817 347.963 245.519 347.963 243.495 347.963 241.85 346.242 241.85 344.126 241.85 342.009 243.495 340.289 245.519 340.289 246.817 340.289 247.964 340.997 248.605 342.06L245.434 342.06C244.861 342.06 244.346 342.296 243.975 342.667 243.596 343.038 243.368 343.561 243.368 344.126 243.368 345.273 244.296 346.2 245.434 346.2Z" stroke="#1D1D1B" stroke-width="0.843301" stroke-miterlimit="10" fill="none" transform="matrix(1 0 0 1.00139 229 670.172)"/><path d="M248.723 339.133 252.687 339.133 252.687 342.06 248.723 342.06Z" stroke="#1D1D1B" stroke-width="0.843301" stroke-miterlimit="10" fill="none" transform="matrix(1 0 0 1.00139 229 670.172)"/><path d="M502 163.516 480.631 163.55 384.823 163.693 383.55 163.693 368.413 163.718" stroke="#009640" stroke-width="1.6866" stroke-miterlimit="10" fill="none" transform="matrix(1 0 0 1.00139 229 670.172)"/><path d="M0 164.267 16.8154 164.241 101.474 164.115" stroke="#009640" stroke-width="1.6866" stroke-miterlimit="10" fill="none" transform="matrix(1 0 0 1.00139 229 670.172)"/><path d="M350.847 163.744 249.752 163.895" stroke="#009640" stroke-width="1.6866" stroke-miterlimit="10" fill="none" transform="matrix(1 0 0 1.00139 229 670.172)"/><path d="M231.781 163.921 119.049 164.089" stroke="#009640" stroke-width="1.6866" stroke-miterlimit="10" fill="none" transform="matrix(1 0 0 1.00139 229 670.172)"/><path d="M231.781 144.913 249.752 144.913 249.752 197.181 231.781 197.181Z" stroke="#1D1D1B" stroke-width="0.843301" stroke-miterlimit="10" fill="none" transform="matrix(1 0 0 1.00139 229 670.172)"/><path d="M323.988 320.648 323.988 205.167 254.129 205.167 254.129 206.735 227.076 206.735 227.076 205.167 145.579 205.167 145.579 320.648 148.159 320.648 148.159 340.626 145.579 340.626 145.579 347.963 323.988 347.963 323.988 340.626 321.736 340.626 321.736 320.648 323.988 320.648ZM210.488 346.04C209.349 346.04 208.422 345.112 208.422 343.974 208.422 343.4 208.649 342.886 209.029 342.507 209.4 342.127 209.914 341.899 210.488 341.899L221.029 341.899C222.168 341.899 223.095 342.827 223.095 343.974 223.095 344.539 222.867 345.062 222.488 345.433 222.117 345.804 221.603 346.04 221.029 346.04L210.488 346.04ZM245.434 346.2C244.296 346.2 243.368 345.273 243.368 344.126 243.368 343.561 243.596 343.038 243.975 342.667 244.346 342.296 244.861 342.06 245.434 342.06L255.975 342.06C257.122 342.06 258.042 342.987 258.042 344.126 258.042 344.699 257.814 345.214 257.443 345.593 257.063 345.973 256.549 346.2 255.975 346.2L245.434 346.2ZM281.114 339.133 192.34 339.133 192.34 306.135C192.34 305.283 192.264 305.115 192.34 304.432 192.441 303.614 192.45 301.91 192.34 299.195L192.483 299.195 190.19 283.602 193.866 283.012 196.43 282.598 201.819 281.73 204.391 299.195 212.613 299.195 212.613 282.573 224.377 282.573 224.377 299.195 234.142 299.195 232.835 298.975 235.458 281.907 240.088 282.683 242.643 283.113 247.053 283.855 244.692 299.195 281.114 299.195 281.114 339.133ZM277.741 287.506C275.995 285.744 274.908 283.273 274.908 280.541 274.908 275.194 279.057 270.868 284.175 270.868 289.294 270.868 293.435 275.194 293.435 280.541 293.435 285.887 289.286 290.222 284.175 290.222 281.671 290.222 279.411 289.185 277.741 287.506Z" stroke="#1D1D1B" stroke-width="0.843301" stroke-miterlimit="10" fill="none" transform="matrix(1 0 0 1.00139 229 670.172)"/><path d="M321.736 320.648 331.291 320.648 331.291 340.626 321.736 340.626Z" stroke="#1D1D1B" stroke-width="0.843301" stroke-miterlimit="10" fill="none" transform="matrix(1 0 0 1.00139 229 670.172)"/><path d="M281.114 299.195 281.114 339.133 192.34 339.133 192.34 306.135C192.34 305.283 192.264 305.115 192.34 304.432 192.441 303.614 192.45 301.91 192.34 299.195L281.114 299.195Z" stroke="#1D1D1B" stroke-width="0.843301" stroke-miterlimit="10" fill="none" transform="matrix(1 0 0 1.00139 229 670.172)"/><path d="M328.854 320.648 328.854 199.82 254.129 199.82 254.129 206.735 227.076 206.735 227.076 199.82 140.705 199.82 140.705 320.648 148.159 320.648 148.159 340.626 140.705 340.626 140.705 352.744 328.854 352.744 328.854 340.626 321.736 340.626 321.736 320.648 328.854 320.648ZM245.434 346.2C244.296 346.2 243.368 345.273 243.368 344.126 243.368 343.561 243.596 343.038 243.975 342.667 244.346 342.296 244.861 342.06 245.434 342.06L255.975 342.06C257.122 342.06 258.042 342.987 258.042 344.126 258.042 344.699 257.814 345.214 257.443 345.593 257.063 345.973 256.549 346.2 255.975 346.2L245.434 346.2ZM221.029 341.899C222.168 341.899 223.095 342.827 223.095 343.974 223.095 344.539 222.867 345.062 222.488 345.433 222.117 345.804 221.603 346.04 221.029 346.04L210.488 346.04C209.349 346.04 208.422 345.112 208.422 343.974 208.422 343.4 208.649 342.886 209.029 342.507 209.4 342.127 209.914 341.899 210.488 341.899L221.029 341.899ZM274.908 280.541C274.908 275.194 279.057 270.868 284.175 270.868 289.294 270.868 293.435 275.194 293.435 280.541 293.435 285.887 289.286 290.222 284.175 290.222 281.671 290.222 279.411 289.185 277.741 287.506 275.995 285.744 274.908 283.273 274.908 280.541ZM232.835 298.975 235.458 281.907 240.088 282.683 242.643 283.113 247.053 283.855 244.692 299.195 281.114 299.195 281.114 339.133 192.34 339.133 192.34 306.135C192.34 305.283 192.264 305.115 192.34 304.432 192.441 303.614 192.45 301.91 192.34 299.195L192.483 299.195 190.19 283.602 193.866 283.012 196.43 282.598 201.819 281.73 204.391 299.195 212.613 299.195 212.613 282.573 224.377 282.573 224.377 299.195 234.142 299.195 232.835 298.975Z" stroke="#1D1D1B" stroke-width="0.843301" stroke-miterlimit="10" fill="none" transform="matrix(1 0 0 1.00139 229 670.172)"/><path d="M258.042 344.126C258.042 344.699 257.814 345.214 257.443 345.593 257.063 345.973 256.549 346.2 255.975 346.2L245.434 346.2C244.296 346.2 243.368 345.273 243.368 344.126 243.368 343.561 243.596 343.038 243.975 342.667 244.346 342.296 244.861 342.06 245.434 342.06L255.975 342.06C257.122 342.06 258.042 342.987 258.042 344.126Z" stroke="#1D1D1B" stroke-width="0.843301" stroke-miterlimit="10" fill="none" transform="matrix(1 0 0 1.00139 229 670.172)"/><path d="M223.095 343.974C223.095 344.539 222.867 345.062 222.488 345.433 222.117 345.804 221.603 346.04 221.029 346.04L210.488 346.04C209.349 346.04 208.422 345.112 208.422 343.974 208.422 343.4 208.649 342.886 209.029 342.507 209.4 342.127 209.914 341.899 210.488 341.899L221.029 341.899C222.168 341.899 223.095 342.827 223.095 343.974Z" stroke="#1D1D1B" stroke-width="0.843301" stroke-miterlimit="10" fill="none" transform="matrix(1 0 0 1.00139 229 670.172)"/><path d="M212.613 282.573 224.377 282.573 224.377 299.195 212.613 299.195Z" stroke="#1D1D1B" stroke-width="0.843301" stroke-miterlimit="10" fill="none" transform="matrix(1 0 0 1.00139 229 670.172)"/><path d="M247.053 283.855 244.692 299.195 234.142 299.195 232.835 298.975 235.458 281.907 240.088 282.683 242.643 283.113 247.053 283.855Z" stroke="#1D1D1B" stroke-width="0.843301" stroke-miterlimit="10" fill="none" transform="matrix(1 0 0 1.00139 229 670.172)"/><path d="M293.435 280.541C293.435 285.887 289.286 290.222 284.175 290.222 281.671 290.222 279.411 289.185 277.741 287.506 275.995 285.744 274.908 283.273 274.908 280.541 274.908 275.194 279.057 270.868 284.175 270.868 289.294 270.868 293.435 275.194 293.435 280.541Z" stroke="#1D1D1B" stroke-width="0.843301" stroke-miterlimit="10" fill="none" transform="matrix(1 0 0 1.00139 229 670.172)"/><path d="M138.596 320.648 148.159 320.648 148.159 340.626 138.596 340.626Z" stroke="#1D1D1B" stroke-width="0.843301" stroke-miterlimit="10" fill="none" transform="matrix(1 0 0 1.00139 229 670.172)"/><path d="M152.671 324.317C152.671 324.317 156.719 319.56 161.703 320.884 166.687 322.208 165.565 322.908 170.929 323.878 176.292 324.848 182.507 321.061 182.507 321.061" stroke="#1D71B8" stroke-width="0.632475" stroke-miterlimit="10" fill="none" transform="matrix(1 0 0 1.00139 229 670.172)"/><path d="M152.671 329.646C152.671 329.646 156.719 324.89 161.703 326.214 166.687 327.538 165.565 328.238 170.929 329.208 176.292 330.177 182.507 326.391 182.507 326.391" stroke="#1D71B8" stroke-width="0.632475" stroke-miterlimit="10" fill="none" transform="matrix(1 0 0 1.00139 229 670.172)"/><path d="M152.671 334.976C152.671 334.976 156.719 330.22 161.703 331.544 166.687 332.868 165.565 333.568 170.929 334.537 176.292 335.507 182.507 331.721 182.507 331.721" stroke="#1D71B8" stroke-width="0.632475" stroke-miterlimit="10" fill="none" transform="matrix(1 0 0 1.00139 229 670.172)"/><path d="M316.82 325.649C316.82 325.649 312.957 320.893 308.201 322.217 303.445 323.541 304.516 324.241 299.405 325.21 294.287 326.18 288.358 322.394 288.358 322.394" stroke="#1D71B8" stroke-width="0.632475" stroke-miterlimit="10" fill="none" transform="matrix(1 0 0 1.00139 229 670.172)"/><path d="M316.82 330.979C316.82 330.979 312.957 326.222 308.201 327.546 303.445 328.87 304.516 329.57 299.405 330.54 294.287 331.51 288.358 327.723 288.358 327.723" stroke="#1D71B8" stroke-width="0.632475" stroke-miterlimit="10" fill="none" transform="matrix(1 0 0 1.00139 229 670.172)"/><path d="M316.82 336.308C316.82 336.308 312.957 331.552 308.201 332.876 303.445 334.2 304.516 334.9 299.405 335.87 294.295 336.84 288.358 333.053 288.358 333.053" stroke="#1D71B8" stroke-width="0.632475" stroke-miterlimit="10" fill="none" transform="matrix(1 0 0 1.00139 229 670.172)"/><path d="M227.076 197.181 254.129 197.181 254.129 206.735 227.076 206.735Z" stroke="#1D1D1B" stroke-width="0.843301" stroke-miterlimit="10" fill="none" transform="matrix(1 0 0 1.00139 229 670.172)"/><path d="M245.831 246.615C245.831 246.615 251.245 242.533 249.743 237.499 248.242 232.464 247.441 233.603 246.337 228.197 245.232 222.783 249.541 216.517 249.541 216.517" stroke="#BE1622" stroke-width="0.632475" stroke-miterlimit="10" fill="none" transform="matrix(1 0 0 1.00139 229 670.172)"/><path d="M239.767 246.615C239.767 246.615 245.181 242.533 243.68 237.499 242.179 232.464 241.378 233.603 240.273 228.197 239.168 222.783 243.478 216.517 243.478 216.517" stroke="#BE1622" stroke-width="0.632475" stroke-miterlimit="10" fill="none" transform="matrix(1 0 0 1.00139 229 670.172)"/><path d="M233.695 246.615C233.695 246.615 239.109 242.533 237.608 237.499 236.107 232.464 235.306 233.603 234.201 228.197 233.097 222.792 237.406 216.517 237.406 216.517" stroke="#BE1622" stroke-width="0.632475" stroke-miterlimit="10" fill="none" transform="matrix(1 0 0 1.00139 229 670.172)"/><path d="M373.962 97.5446 384.832 97.5446 384.832 163.685 373.962 163.685Z" stroke="#432918" stroke-width="0.843301" stroke-miterlimit="10" fill="#7D4E24" transform="matrix(1 0 0 1.00139 229 670.172)"/><path d="M383.98 98.2024C383.98 106.12 377.562 112.538 369.644 112.538 361.726 112.538 355.308 106.12 355.308 98.2024 355.308 90.2847 361.726 83.8662 369.644 83.8662 377.562 83.8662 383.98 90.2847 383.98 98.2024Z" stroke="#006633" stroke-width="0.843301" stroke-miterlimit="10" fill="#008D36" transform="matrix(1 0 0 1.00139 229 670.172)"/><path d="M402.634 104.805C402.634 112.723 396.215 119.142 388.298 119.142 380.38 119.142 373.962 112.723 373.962 104.805 373.962 96.8878 380.38 90.4693 388.298 90.4693 396.215 90.4693 402.634 96.8878 402.634 104.805Z" stroke="#006633" stroke-width="0.843301" stroke-miterlimit="10" fill="#008D36" transform="matrix(1 0 0 1.00139 229 670.172)"/><path d="M399.159 85.4095C399.159 93.3271 392.741 99.7456 384.823 99.7456 376.906 99.7456 370.487 93.3271 370.487 85.4095 370.487 77.4919 376.906 71.0734 384.823 71.0734 392.741 71.0734 399.159 77.4919 399.159 85.4095Z" stroke="#006633" stroke-width="0.843301" stroke-miterlimit="10" fill="#008D36" transform="matrix(1 0 0 1.00139 229 670.172)"/><path d="M416.97 96.3724C416.97 104.29 410.552 110.709 402.634 110.709 394.716 110.709 388.298 104.29 388.298 96.3724 388.298 88.4548 394.716 82.0363 402.634 82.0363 410.552 82.0363 416.97 88.4548 416.97 96.3724Z" stroke="#006633" stroke-width="0.843301" stroke-miterlimit="10" fill="#008D36" transform="matrix(1 0 0 1.00139 229 670.172)"/><path d="M375.269 80.0714C375.269 87.989 368.85 94.4075 360.933 94.4075 353.015 94.4075 346.597 87.989 346.597 80.0714 346.597 72.1538 353.015 65.7353 360.933 65.7353 368.85 65.7353 375.269 72.1538 375.269 80.0714Z" stroke="#006633" stroke-width="0.843301" stroke-miterlimit="10" fill="#008D36" transform="matrix(1 0 0 1.00139 229 670.172)"/><path d="M369.644 101.576C369.644 109.493 363.225 115.912 355.308 115.912 347.39 115.912 340.972 109.493 340.972 101.576 340.972 93.6579 347.39 87.2394 355.308 87.2394 363.225 87.2394 369.644 93.6579 369.644 101.576Z" stroke="#006633" stroke-width="0.843301" stroke-miterlimit="10" fill="#008D36" transform="matrix(1 0 0 1.00139 229 670.172)"/><path d="M396.351 71.0734C396.351 78.991 389.933 85.4095 382.015 85.4095 374.098 85.4095 367.679 78.991 367.679 71.0734 367.679 63.1558 374.098 56.7373 382.015 56.7373 389.933 56.7373 396.351 63.1558 396.351 71.0734Z" stroke="#006633" stroke-width="0.843301" stroke-miterlimit="10" fill="#008D36" transform="matrix(1 0 0 1.00139 229 670.172)"/><path d="M416.97 80.5605C416.97 88.4781 410.552 94.8966 402.634 94.8966 394.716 94.8966 388.298 88.4781 388.298 80.5605 388.298 72.6429 394.716 66.2244 402.634 66.2244 410.552 66.2244 416.97 72.6429 416.97 80.5605Z" stroke="#006633" stroke-width="0.843301" stroke-miterlimit="10" fill="#008D36" transform="matrix(1 0 0 1.00139 229 670.172)"/><path d="M80.6786 97.3506 91.5487 97.3506 91.5487 163.491 80.6786 163.491Z" stroke="#432918" stroke-width="0.843301" stroke-miterlimit="10" fill="#7D4E24" transform="matrix(1 0 0 1.00139 229 670.172)"/><path d="M90.7054 98.0084C90.7054 105.926 84.2869 112.345 76.3693 112.345 68.4517 112.345 62.0332 105.926 62.0332 98.0084 62.0332 90.0908 68.4517 83.6723 76.3693 83.6723 84.2869 83.6723 90.7054 90.0908 90.7054 98.0084Z" stroke="#006633" stroke-width="0.843301" stroke-miterlimit="10" fill="#008D36" transform="matrix(1 0 0 1.00139 229 670.172)"/><path d="M109.351 104.611C109.351 112.529 102.932 118.948 95.0147 118.948 87.0971 118.948 80.6786 112.529 80.6786 104.611 80.6786 96.6938 87.0971 90.2753 95.0147 90.2753 102.932 90.2753 109.351 96.6938 109.351 104.611Z" stroke="#006633" stroke-width="0.843301" stroke-miterlimit="10" fill="#008D36" transform="matrix(1 0 0 1.00139 229 670.172)"/><path d="M105.885 85.2155C105.885 93.1331 99.4663 99.5516 91.5487 99.5516 83.6311 99.5516 77.2126 93.1331 77.2126 85.2155 77.2126 77.2979 83.6311 70.8794 91.5487 70.8794 99.4663 70.8794 105.885 77.2979 105.885 85.2155Z" stroke="#006633" stroke-width="0.843301" stroke-miterlimit="10" fill="#008D36" transform="matrix(1 0 0 1.00139 229 670.172)"/><path d="M123.687 96.1784C123.687 104.096 117.268 110.515 109.351 110.515 101.433 110.515 95.0147 104.096 95.0147 96.1784 95.0147 88.2608 101.433 81.8423 109.351 81.8423 117.268 81.8423 123.687 88.2608 123.687 96.1784Z" stroke="#006633" stroke-width="0.843301" stroke-miterlimit="10" fill="#008D36" transform="matrix(1 0 0 1.00139 229 670.172)"/><path d="M81.9857 79.8774C81.9857 87.7951 75.5672 94.2135 67.6496 94.2135 59.732 94.2135 53.3135 87.7951 53.3135 79.8774 53.3135 71.9598 59.732 65.5413 67.6496 65.5413 75.5672 65.5413 81.9857 71.9598 81.9857 79.8774Z" stroke="#006633" stroke-width="0.843301" stroke-miterlimit="10" fill="#008D36" transform="matrix(1 0 0 1.00139 229 670.172)"/><path d="M76.3693 101.382C76.3693 109.299 69.9508 115.718 62.0332 115.718 54.1156 115.718 47.6971 109.299 47.6971 101.382 47.6971 93.464 54.1156 87.0455 62.0332 87.0455 69.9508 87.0455 76.3693 93.464 76.3693 101.382Z" stroke="#006633" stroke-width="0.843301" stroke-miterlimit="10" fill="#008D36" transform="matrix(1 0 0 1.00139 229 670.172)"/><path d="M103.068 70.8794C103.068 78.797 96.6497 85.2155 88.7321 85.2155 80.8145 85.2155 74.396 78.797 74.396 70.8794 74.396 62.9618 80.8145 56.5433 88.7321 56.5433 96.6497 56.5433 103.068 62.9618 103.068 70.8794Z" stroke="#006633" stroke-width="0.843301" stroke-miterlimit="10" fill="#008D36" transform="matrix(1 0 0 1.00139 229 670.172)"/><path d="M123.687 80.375C123.687 88.2926 117.268 94.7111 109.351 94.7111 101.433 94.7111 95.0147 88.2926 95.0147 80.375 95.0147 72.4574 101.433 66.0389 109.351 66.0389 117.268 66.0389 123.687 72.4574 123.687 80.375Z" stroke="#006633" stroke-width="0.843301" stroke-miterlimit="10" fill="#008D36" transform="matrix(1 0 0 1.00139 229 670.172)"/><path d="M138.596 321.981 138.596 339.133 101.474 339.133 101.474 159.207 119.049 159.207 119.049 321.981 138.596 321.981Z" stroke="#1D1D1B" stroke-width="0.843301" stroke-miterlimit="10" fill="none" transform="matrix(1 0 0 1.00139 229 670.172)"/><path d="M368.413 158.861 368.413 338.796 331.291 338.796 331.291 321.643 350.847 321.643 350.847 158.861 368.413 158.861Z" stroke="#1D1D1B" stroke-width="0.843301" stroke-miterlimit="10" fill="none" transform="matrix(1 0 0 1.00139 229 670.172)"/><path d="M155.142 87.5936 159.924 93.4967 149.989 101.55C148.8 102.512 147.046 102.335 146.085 101.137L144.803 99.5601C143.833 98.3626 144.019 96.617 145.208 95.6472L155.142 87.5936Z" stroke="#1D1D1B" stroke-width="0.843301" stroke-miterlimit="10" fill="none" transform="matrix(1 0 0 1.00139 229 670.172)"/><path d="M178.139 78.7305 168.205 86.7841 163.423 80.881 173.349 72.8359C174.546 71.8661 176.3 72.0516 177.262 73.2407L178.544 74.8176C179.513 76.0151 179.328 77.7607 178.139 78.7305Z" stroke="#1D1D1B" stroke-width="0.843301" stroke-miterlimit="10" fill="none" transform="matrix(1 0 0 1.00139 229 670.172)"/><path d="M122.135 46.8875 131.201 58.0697 115.676 52.1244 122.135 46.8875Z" stroke="#1D1D1B" stroke-width="0.843301" stroke-miterlimit="10" fill="none" transform="matrix(1 0 0 1.00139 229 670.172)"/><path d="M139.49 51.3654 130.416 40.1748 136.876 34.9379 139.49 51.3654Z" stroke="#1D1D1B" stroke-width="0.843301" stroke-miterlimit="10" fill="none" transform="matrix(1 0 0 1.00139 229 670.172)"/><path d="M184.472 115.313C182.187 117.168 177.026 114.588 172.944 109.553L181.225 102.841C185.307 107.875 186.757 113.458 184.472 115.313Z" stroke="#1D1D1B" stroke-width="0.843301" stroke-miterlimit="10" fill="none" transform="matrix(1 0 0 1.00139 229 670.172)"/><path d="M181.225 102.841 172.944 109.553 159.924 93.4967 155.142 87.5936 131.201 58.0697 122.135 46.8875 130.416 40.1748 139.49 51.3654 163.423 80.881 168.205 86.7841 181.225 102.841Z" stroke="#1D1D1B" stroke-width="0.843301" stroke-miterlimit="10" fill="none" transform="matrix(1 0 0 1.00139 229 670.172)"/><path d="M119.943 43.0842C114.849 40.9844 109.756 38.8762 104.662 36.7763L104.384 38.8509C106.129 38.6991 107.867 38.7665 109.587 39.0954 110.582 39.2809 111.4 38.1256 110.616 37.3329 108.997 35.6969 107.015 34.55 104.974 33.5296 103.954 33.0237 102.933 32.5345 101.921 32.0033 100.909 31.472 99.695 30.9238 98.9276 30.0974L99.2396 30.8395 98.9023 31.3624 99.2818 31.3624C99.5095 31.4045 99.8131 31.3539 100.041 31.3539 100.614 31.3539 101.179 31.3539 101.753 31.3371 102.52 31.3202 103.279 31.2527 103.819 30.6455 105.126 29.1782 103.473 27.5085 102.351 26.6146 98.9276 23.9244 95.1243 21.6813 91.4813 19.3116L90.6717 21.2343C92.08 21.4536 93.4883 21.6728 94.9051 21.8837 96.1194 22.0692 97.5024 22.4993 98.7336 22.4149 101.095 22.2463 100.311 19.1682 99.8552 17.7177 98.5818 13.7036 95.1918 10.4148 94.6774 6.1561L92.8811 6.8982C94.4918 8.93899 96.1025 10.9966 97.9409 12.8435 98.8095 13.7205 99.7287 14.5385 100.707 15.2975 101.508 15.9131 102.495 16.8407 103.599 16.5118 104.519 16.242 104.94 15.2975 105.092 14.4373 105.337 13.0796 105.396 11.6628 105.539 10.2967 105.86 7.25239 106.18 4.20807 106.492 1.16375L104.417 1.44204C105.176 4.25024 105.927 7.05843 106.871 9.80759 107.749 12.3544 108.727 14.9264 110.363 17.1021 110.928 17.8527 111.948 17.743 112.285 16.8491 113.517 13.6193 114.748 10.3895 115.979 7.15962L113.905 6.88133C114.841 14.6819 116.519 22.3643 118.956 29.836 119.285 30.8311 120.668 30.8395 120.988 29.836 121.739 27.5 122.135 25.0798 122.186 22.6258L120.078 22.6258C120.516 28.4277 121.747 34.1199 123.78 39.5677 124.252 40.8242 126.284 40.2845 125.812 39.0111 123.847 33.7405 122.616 28.2421 122.186 22.6258 122.085 21.2849 120.103 21.2512 120.078 22.6258 120.027 24.9027 119.647 27.1121 118.956 29.2794L120.988 29.2794C118.61 21.9933 116.924 14.4963 116.004 6.88977 115.861 5.70915 114.377 5.45615 113.93 6.61148 112.699 9.84132 111.467 13.0712 110.236 16.301L112.159 16.048C110.548 13.906 109.604 11.4014 108.752 8.88839 107.9 6.37535 107.141 3.57559 106.425 0.902332 106.096-0.312021 104.468 0.050598 104.35 1.18062 104.105 3.53343 103.861 5.88624 103.608 8.23905 103.481 9.41123 103.363 10.5919 103.237 11.764 103.169 12.3881 103.119 13.0121 103.043 13.6362 103.018 13.8217 102.925 14.1 102.942 14.2855L102.857 14.5216C103.136 14.5385 103.186 14.5048 103.001 14.4204 102.208 13.7542 101.339 13.1977 100.564 12.4977 99.7878 11.7978 99.0794 11.081 98.3879 10.3304 96.9543 8.77033 95.6387 7.10059 94.3316 5.43086 93.7919 4.73935 92.4258 5.29593 92.5354 6.17296 92.9739 9.82445 95.1159 12.7254 96.7603 15.9047 97.1651 16.6805 97.5193 17.4648 97.7891 18.2996 97.9241 18.7297 98.0421 19.1598 98.118 19.6067 98.1518 19.8007 98.1433 20.0368 98.2024 20.2223 98.3541 20.7621 98.2024 20.2139 98.4385 20.3404 98 20.1043 97.1482 20.1465 96.6423 20.0706 96.0351 19.9778 95.4363 19.885 94.8292 19.7923 93.6232 19.6067 92.4089 19.4212 91.203 19.2357 90.0561 19.0586 89.3308 20.4753 90.3934 21.1584 93.2943 23.0474 96.2375 24.8774 99.0794 26.8423 99.7793 27.3314 100.471 27.8289 101.137 28.3602 101.424 28.5963 101.694 28.9421 101.989 29.1445L102.132 29.389C102.284 29.1951 102.216 29.1529 101.93 29.2372 101.28 29.0348 100.134 29.2541 99.4589 29.2625 98.8601 29.2625 98.2361 29.2625 97.7301 29.6167 95.1833 31.4129 100.825 33.8417 101.997 34.4235 104.502 35.6716 107.108 36.8185 109.106 38.834L110.135 37.0715C108.221 36.7089 106.315 36.5908 104.367 36.751 103.136 36.8607 102.992 38.3702 104.089 38.8256 109.182 40.9254 114.276 43.0336 119.369 45.1334 120.626 45.6479 121.165 43.6155 119.926 43.1011L119.926 43.1011Z" fill="#E94E1B" transform="matrix(1 0 0 1.00139 229 670.172)"/></g></svg>