<svg width="475" height="146" xmlns="http://www.w3.org/2000/svg" xmlns:xlink="http://www.w3.org/1999/xlink" xml:space="preserve" overflow="hidden"><g transform="translate(-242 -498)"><path d="M281.589 606.972 281.589 607.112C281.559 607.963 281.039 608.703 280.329 609.093 279.999 609.253 279.619 609.363 279.229 609.363 278.819 609.363 278.459 609.253 278.099 609.093 277.388 608.713 276.888 607.963 276.838 607.112L276.838 606.972C276.838 606.122 277.278 605.382 277.939 604.942 278.319 604.722 278.759 604.582 279.229 604.582 279.669 604.582 280.109 604.722 280.469 604.942 281.159 605.352 281.599 606.092 281.599 606.972Z" fill="#1D1D1B"/><path d="M255.884 568.615 303.924 568.615C302.564 575.446 301.453 594.95 302.784 606.362 304.714 622.996 310.895 635.438 315.136 642.51L244.682 642.51C248.923 634.918 254.654 622.356 256.574 605.912 257.854 594.91 257.054 575.626 255.884 568.625Z" stroke="#1D1D1B" stroke-width="3.00062" stroke-miterlimit="10" fill="none"/><path d="M330.99 521.685C330.99 533.957 321.047 543.889 308.785 543.889 306.284 543.889 303.894 543.479 301.673 542.709 300.223 547.87 295.692 551.741 290.171 552.211L290.171 552.261C290.171 557.752 285.7 562.223 280.209 562.223 274.718 562.223 270.217 557.752 270.217 552.261 270.217 548.03 272.828 544.44 276.528 542.979 276.148 541.769 275.948 540.479 275.948 539.138 275.948 534.968 277.869 531.257 280.919 528.876 280.449 528.026 280.209 527.066 280.209 526.046 280.209 522.755 282.87 520.085 286.14 520.085 286.3 520.085 286.5 520.085 286.66 520.115 287.461 508.612 297.063 499.5 308.785 499.5 320.507 499.5 330.99 509.442 330.99 521.685Z" stroke="#1D1D1B" stroke-width="3.00062" stroke-miterlimit="10" fill="none"/><path d="M285.76 618.695C283.89 619.735 281.729 620.345 279.389 620.345 277.048 620.345 274.638 619.655 272.668 618.475L277.228 610.623C277.829 610.953 278.489 611.143 279.229 611.143 279.919 611.143 280.569 610.983 281.119 610.653L285.76 618.695Z" fill="#1D1D1B"/><path d="M283.38 607.142C283.41 607.092 283.41 607.032 283.41 606.982 283.41 605.442 282.61 604.132 281.409 603.412L285.91 595.62C289.941 597.871 292.692 602.181 292.692 607.152L283.39 607.152Z" fill="#1D1D1B"/><path d="M275.028 606.972C275.028 607.022 275.028 607.082 275.058 607.132L266.216 607.132C266.216 602.331 268.767 598.161 272.587 595.82L276.978 603.422C275.798 604.162 275.028 605.452 275.028 606.962Z" fill="#1D1D1B"/><path d="M365.587 607.753 361.696 607.753 360.946 602.661 362.146 602.461 362.986 602.331 364.746 602.051 365.587 607.753Z" stroke="#1D1D1B" stroke-width="0.500103" stroke-miterlimit="10" fill="none"/><path d="M362.986 602.331 362.146 602.461 360.796 593.3 361.636 593.17 362.986 602.331Z" stroke="#1D1D1B" stroke-width="0.500103" stroke-miterlimit="10" fill="none"/><path d="M369.777 592.979 370.628 592.979 370.628 602.321 369.777 602.321Z" stroke="#1D1D1B" stroke-width="0.500103" stroke-miterlimit="10" fill="none"/><path d="M379.499 593.31 378.089 602.501 377.259 602.361 378.669 593.17 379.499 593.31Z" stroke="#1D1D1B" stroke-width="0.500103" stroke-miterlimit="10" fill="none"/><path d="M372.118 622.386C372.118 623.076 371.578 623.636 370.918 623.636 370.498 623.636 370.118 623.406 369.908 623.056L371.018 623.056C371.208 623.056 371.378 622.976 371.498 622.856 371.618 622.736 371.698 622.566 371.698 622.376 371.698 622.005 371.398 621.695 371.018 621.695L369.908 621.695C369.908 621.695 369.927 621.655 369.948 621.635 370.168 621.325 370.518 621.115 370.918 621.115 371.578 621.115 372.118 621.675 372.118 622.366Z" stroke="#1D1D1B" stroke-width="0.500103" stroke-miterlimit="10" fill="none"/><path d="M367.587 623.066 368.627 623.066C368.417 623.416 368.047 623.646 367.617 623.646 366.957 623.646 366.417 623.086 366.417 622.396 366.417 621.705 366.957 621.145 367.617 621.145 368.037 621.145 368.417 621.375 368.627 621.725L367.587 621.725C367.397 621.725 367.227 621.795 367.107 621.925 366.987 622.045 366.907 622.216 366.907 622.406 366.907 622.776 367.207 623.086 367.587 623.086Z" stroke="#1D1D1B" stroke-width="0.500103" stroke-miterlimit="10" fill="none"/><path d="M368.657 620.805 369.948 620.805 369.948 621.705 368.657 621.705Z" stroke="#1D1D1B" stroke-width="0.500103" stroke-miterlimit="10" fill="none"/><path d="M383.54 622.436C383.54 623.126 383.01 623.686 382.34 623.686 381.92 623.686 381.55 623.456 381.33 623.106L382.44 623.106C382.63 623.106 382.8 623.036 382.92 622.906 383.04 622.786 383.12 622.616 383.12 622.426 383.12 622.055 382.82 621.745 382.44 621.745L381.33 621.745C381.33 621.745 381.35 621.705 381.37 621.685 381.59 621.375 381.94 621.165 382.34 621.165 383 621.165 383.54 621.725 383.54 622.416Z" stroke="#1D1D1B" stroke-width="0.500103" stroke-miterlimit="10" fill="none"/><path d="M391.662 604.822 390.532 607.753 388.091 607.753 389.562 603.932C390.112 604.482 390.842 604.822 391.662 604.822Z" stroke="#1D1D1B" stroke-width="0.500103" stroke-miterlimit="10" fill="none"/><path d="M378.999 623.116 380.04 623.116C379.83 623.466 379.459 623.696 379.029 623.696 378.369 623.696 377.829 623.136 377.829 622.446 377.829 621.755 378.369 621.195 379.029 621.195 379.449 621.195 379.83 621.425 380.04 621.775L378.999 621.775C378.809 621.775 378.639 621.855 378.519 621.975 378.399 622.096 378.319 622.266 378.319 622.456 378.319 622.826 378.619 623.136 378.999 623.136Z" stroke="#1D1D1B" stroke-width="0.500103" stroke-miterlimit="10" fill="none"/><path d="M380.08 620.805 381.37 620.805 381.37 621.765 380.08 621.765Z" stroke="#1D1D1B" stroke-width="0.500103" stroke-miterlimit="10" fill="none"/><path d="M390.662 607.753 390.662 620.805 361.656 620.805 361.656 610.023C361.656 609.743 361.636 609.693 361.656 609.463 361.686 609.193 361.696 608.643 361.656 607.753L390.662 607.753Z" stroke="#1D1D1B" stroke-width="0.500103" stroke-miterlimit="10" fill="none"/><path d="M383.12 622.436C383.12 622.626 383.05 622.796 382.92 622.916 382.8 623.036 382.63 623.116 382.44 623.116L378.999 623.116C378.629 623.116 378.319 622.816 378.319 622.436 378.319 622.256 378.389 622.076 378.519 621.955 378.639 621.835 378.809 621.755 378.999 621.755L382.44 621.755C382.81 621.755 383.12 622.055 383.12 622.436Z" stroke="#1D1D1B" stroke-width="0.500103" stroke-miterlimit="10" fill="none"/><path d="M371.698 622.386C371.698 622.566 371.628 622.746 371.498 622.866 371.378 622.986 371.208 623.066 371.018 623.066L367.577 623.066C367.207 623.066 366.897 622.766 366.897 622.386 366.897 622.195 366.967 622.026 367.097 621.905 367.217 621.785 367.387 621.705 367.577 621.705L371.018 621.705C371.388 621.705 371.698 622.005 371.698 622.386Z" stroke="#1D1D1B" stroke-width="0.500103" stroke-miterlimit="10" fill="none"/><path d="M368.277 602.321 372.118 602.321 372.118 607.753 368.277 607.753Z" stroke="#1D1D1B" stroke-width="0.500103" stroke-miterlimit="10" fill="none"/><path d="M379.529 602.742 378.759 607.753 375.309 607.753 374.889 607.683 375.739 602.101 377.259 602.361 378.089 602.501 379.529 602.742Z" stroke="#1D1D1B" stroke-width="0.500103" stroke-miterlimit="10" fill="none"/><path d="M394.693 601.661C394.693 603.412 393.332 604.822 391.662 604.822 390.842 604.822 390.102 604.482 389.562 603.932 388.991 603.352 388.631 602.552 388.631 601.651 388.631 599.901 389.992 598.491 391.662 598.491 393.332 598.491 394.693 599.901 394.693 601.651Z" stroke="#1D1D1B" stroke-width="0.500103" stroke-miterlimit="10" fill="none"/><path d="M313.676 613.024 358.685 612.724" stroke="#F7931E" stroke-width="1.00021" stroke-miterlimit="10" fill="none"/><path d="M358.685 612.834 351.584 608.103 351.584 617.565 358.685 612.834Z" stroke="#F7931E" stroke-width="1.00021" stroke-miterlimit="10" fill="none"/><text fill="#F7931E" font-family="Ermilov,Ermilov_MSFontService,sans-serif" font-weight="700" font-size="10" transform="matrix(1.00021 0 0 1.00021 313.676 610)">330 </text><text fill="#F7931E" font-family="Ermilov,Ermilov_MSFontService,sans-serif" font-weight="700" font-size="10" transform="matrix(1.00021 0 0 1.00021 337.681 610)">kV</text><path d="M445.153 607.943 441.252 607.943 440.512 602.842 441.712 602.651 442.542 602.521 444.303 602.231 445.153 607.943Z" stroke="#1D1D1B" stroke-width="0.500103" stroke-miterlimit="10" fill="none"/><path d="M442.542 602.521 441.712 602.651 440.362 593.49 441.192 593.35 442.542 602.521Z" stroke="#1D1D1B" stroke-width="0.500103" stroke-miterlimit="10" fill="none"/><path d="M449.334 593.17 450.184 593.17 450.184 602.511 449.334 602.511Z" stroke="#1D1D1B" stroke-width="0.500103" stroke-miterlimit="10" fill="none"/><path d="M459.056 593.5 457.646 602.682 456.815 602.542 458.226 593.36 459.056 593.5Z" stroke="#1D1D1B" stroke-width="0.500103" stroke-miterlimit="10" fill="none"/><path d="M451.684 622.576C451.684 623.266 451.144 623.826 450.484 623.826 450.064 623.826 449.684 623.596 449.474 623.246L450.584 623.246C450.774 623.246 450.944 623.166 451.064 623.046 451.184 622.926 451.264 622.756 451.264 622.566 451.264 622.195 450.964 621.885 450.584 621.885L449.474 621.885C449.474 621.885 449.494 621.845 449.514 621.825 449.734 621.515 450.084 621.305 450.484 621.305 451.144 621.305 451.684 621.865 451.684 622.556Z" stroke="#1D1D1B" stroke-width="0.500103" stroke-miterlimit="10" fill="none"/><path d="M447.143 623.246 448.184 623.246C447.974 623.596 447.603 623.826 447.173 623.826 446.513 623.826 445.973 623.266 445.973 622.576 445.973 621.885 446.513 621.325 447.173 621.325 447.593 621.325 447.974 621.555 448.184 621.905L447.143 621.905C446.953 621.905 446.783 621.975 446.663 622.105 446.543 622.226 446.463 622.396 446.463 622.586 446.463 622.956 446.763 623.266 447.143 623.266Z" stroke="#1D1D1B" stroke-width="0.500103" stroke-miterlimit="10" fill="none"/><path d="M448.214 620.995 449.504 620.995 449.504 621.895 448.214 621.895Z" stroke="#1D1D1B" stroke-width="0.500103" stroke-miterlimit="10" fill="none"/><path d="M463.097 622.626C463.097 623.316 462.567 623.876 461.896 623.876 461.476 623.876 461.106 623.646 460.886 623.296L461.996 623.296C462.186 623.296 462.357 623.226 462.477 623.096 462.597 622.976 462.677 622.806 462.677 622.616 462.677 622.246 462.376 621.935 461.996 621.935L460.886 621.935C460.886 621.935 460.906 621.895 460.926 621.875 461.146 621.565 461.496 621.355 461.896 621.355 462.557 621.355 463.097 621.915 463.097 622.606Z" stroke="#1D1D1B" stroke-width="0.500103" stroke-miterlimit="10" fill="none"/><path d="M471.218 605.012 470.088 607.943 467.648 607.943 469.118 604.122C469.668 604.672 470.398 605.012 471.218 605.012Z" stroke="#1D1D1B" stroke-width="0.500103" stroke-miterlimit="10" fill="none"/><path d="M458.566 623.306 459.606 623.306C459.396 623.656 459.026 623.886 458.596 623.886 457.936 623.886 457.395 623.326 457.395 622.636 457.395 621.945 457.936 621.385 458.596 621.385 459.016 621.385 459.396 621.615 459.606 621.965L458.566 621.965C458.376 621.965 458.206 622.045 458.086 622.166 457.966 622.286 457.886 622.456 457.886 622.646 457.886 623.016 458.186 623.326 458.566 623.326Z" stroke="#1D1D1B" stroke-width="0.500103" stroke-miterlimit="10" fill="none"/><path d="M459.636 620.995 460.926 620.995 460.926 621.955 459.636 621.955Z" stroke="#1D1D1B" stroke-width="0.500103" stroke-miterlimit="10" fill="none"/><path d="M470.218 607.943 470.218 620.995 441.212 620.995 441.212 610.213C441.212 609.933 441.192 609.883 441.212 609.653 441.242 609.383 441.252 608.833 441.212 607.943L470.218 607.943Z" stroke="#1D1D1B" stroke-width="0.500103" stroke-miterlimit="10" fill="none"/><path d="M462.677 622.626C462.677 622.816 462.607 622.986 462.477 623.106 462.357 623.226 462.186 623.306 461.996 623.306L458.556 623.306C458.186 623.306 457.876 623.006 457.876 622.626 457.876 622.446 457.946 622.266 458.076 622.146 458.196 622.026 458.366 621.945 458.556 621.945L461.996 621.945C462.366 621.945 462.677 622.246 462.677 622.626Z" stroke="#1D1D1B" stroke-width="0.500103" stroke-miterlimit="10" fill="none"/><path d="M451.264 622.576C451.264 622.756 451.194 622.936 451.064 623.056 450.944 623.176 450.774 623.256 450.584 623.256L447.143 623.256C446.773 623.256 446.463 622.956 446.463 622.576 446.463 622.386 446.533 622.216 446.663 622.096 446.783 621.975 446.953 621.895 447.143 621.895L450.584 621.895C450.954 621.895 451.264 622.195 451.264 622.576Z" stroke="#1D1D1B" stroke-width="0.500103" stroke-miterlimit="10" fill="none"/><path d="M447.833 602.511 451.674 602.511 451.674 607.943 447.833 607.943Z" stroke="#1D1D1B" stroke-width="0.500103" stroke-miterlimit="10" fill="none"/><path d="M459.086 602.932 458.316 607.943 454.875 607.943 454.445 607.873 455.305 602.291 456.815 602.542 457.646 602.682 459.086 602.932Z" stroke="#1D1D1B" stroke-width="0.500103" stroke-miterlimit="10" fill="none"/><path d="M474.249 601.841C474.249 603.592 472.889 605.002 471.218 605.002 470.398 605.002 469.658 604.662 469.118 604.112 468.548 603.532 468.188 602.732 468.188 601.831 468.188 600.081 469.548 598.671 471.218 598.671 472.889 598.671 474.249 600.081 474.249 601.831Z" stroke="#1D1D1B" stroke-width="0.500103" stroke-miterlimit="10" fill="none"/><path d="M394.232 612.774 439.242 612.484" stroke="#F7931E" stroke-width="1.00021" stroke-miterlimit="10" fill="none"/><path d="M439.242 612.584 432.15 607.853 432.15 617.315 439.242 612.584Z" stroke="#F7931E" stroke-width="1.00021" stroke-miterlimit="10" fill="none"/><text fill="#F7931E" font-family="Ermilov,Ermilov_MSFontService,sans-serif" font-weight="700" font-size="10" transform="matrix(1.00021 0 0 1.00021 396.233 610)">110 </text><text fill="#F7931E" font-family="Ermilov,Ermilov_MSFontService,sans-serif" font-weight="700" font-size="10" transform="matrix(1.00021 0 0 1.00021 414.237 610)">kV</text><path d="M523.669 607.943 519.778 607.943 519.028 602.842 520.228 602.651 521.069 602.521 522.829 602.231 523.669 607.943Z" stroke="#1D1D1B" stroke-width="0.500103" stroke-miterlimit="10" fill="none"/><path d="M521.069 602.521 520.228 602.651 518.878 593.49 519.718 593.35 521.069 602.521Z" stroke="#1D1D1B" stroke-width="0.500103" stroke-miterlimit="10" fill="none"/><path d="M527.85 593.17 528.7 593.17 528.7 602.511 527.85 602.511Z" stroke="#1D1D1B" stroke-width="0.500103" stroke-miterlimit="10" fill="none"/><path d="M537.582 593.5 536.162 602.682 535.331 602.542 536.742 593.36 537.582 593.5Z" stroke="#1D1D1B" stroke-width="0.500103" stroke-miterlimit="10" fill="none"/><path d="M530.2 622.576C530.2 623.266 529.66 623.826 529 623.826 528.58 623.826 528.2 623.596 527.99 623.246L529.1 623.246C529.29 623.246 529.46 623.166 529.58 623.046 529.7 622.926 529.78 622.756 529.78 622.566 529.78 622.195 529.48 621.885 529.1 621.885L527.99 621.885C527.99 621.885 528.01 621.845 528.03 621.825 528.25 621.515 528.6 621.305 529 621.305 529.66 621.305 530.2 621.865 530.2 622.556Z" stroke="#1D1D1B" stroke-width="0.500103" stroke-miterlimit="10" fill="none"/><path d="M525.659 623.246 526.7 623.246C526.49 623.596 526.12 623.826 525.69 623.826 525.029 623.826 524.489 623.266 524.489 622.576 524.489 621.885 525.029 621.325 525.69 621.325 526.11 621.325 526.49 621.555 526.7 621.905L525.659 621.905C525.469 621.905 525.299 621.975 525.179 622.105 525.059 622.226 524.979 622.396 524.979 622.586 524.979 622.956 525.279 623.266 525.659 623.266Z" stroke="#1D1D1B" stroke-width="0.500103" stroke-miterlimit="10" fill="none"/><path d="M526.73 620.995 528.02 620.995 528.02 621.895 526.73 621.895Z" stroke="#1D1D1B" stroke-width="0.500103" stroke-miterlimit="10" fill="none"/><path d="M541.613 622.626C541.613 623.316 541.083 623.876 540.413 623.876 539.992 623.876 539.622 623.646 539.402 623.296L540.513 623.296C540.703 623.296 540.873 623.226 540.993 623.096 541.113 622.976 541.193 622.806 541.193 622.616 541.193 622.246 540.893 621.935 540.513 621.935L539.402 621.935C539.402 621.935 539.422 621.895 539.442 621.875 539.662 621.565 540.012 621.355 540.413 621.355 541.073 621.355 541.613 621.915 541.613 622.606Z" stroke="#1D1D1B" stroke-width="0.500103" stroke-miterlimit="10" fill="none"/><path d="M549.734 605.012 548.604 607.943 546.164 607.943 547.634 604.122C548.184 604.672 548.914 605.012 549.734 605.012Z" stroke="#1D1D1B" stroke-width="0.500103" stroke-miterlimit="10" fill="none"/><path d="M537.082 623.306 538.122 623.306C537.912 623.656 537.542 623.886 537.112 623.886 536.452 623.886 535.912 623.326 535.912 622.636 535.912 621.945 536.452 621.385 537.112 621.385 537.532 621.385 537.912 621.615 538.122 621.965L537.082 621.965C536.892 621.965 536.722 622.045 536.602 622.166 536.482 622.286 536.402 622.456 536.402 622.646 536.402 623.016 536.702 623.326 537.082 623.326Z" stroke="#1D1D1B" stroke-width="0.500103" stroke-miterlimit="10" fill="none"/><path d="M538.152 620.995 539.442 620.995 539.442 621.955 538.152 621.955Z" stroke="#1D1D1B" stroke-width="0.500103" stroke-miterlimit="10" fill="none"/><path d="M548.734 607.943 548.734 620.995 519.728 620.995 519.728 610.213C519.728 609.933 519.708 609.883 519.728 609.653 519.758 609.383 519.768 608.833 519.728 607.943L548.734 607.943Z" stroke="#1D1D1B" stroke-width="0.500103" stroke-miterlimit="10" fill="none"/><path d="M541.203 622.626C541.203 622.816 541.133 622.986 541.003 623.106 540.883 623.226 540.713 623.306 540.523 623.306L537.082 623.306C536.712 623.306 536.402 623.006 536.402 622.626 536.402 622.446 536.472 622.266 536.602 622.146 536.722 622.026 536.892 621.945 537.082 621.945L540.523 621.945C540.893 621.945 541.203 622.246 541.203 622.626Z" stroke="#1D1D1B" stroke-width="0.500103" stroke-miterlimit="10" fill="none"/><path d="M529.78 622.576C529.78 622.756 529.71 622.936 529.58 623.056 529.46 623.176 529.29 623.256 529.1 623.256L525.659 623.256C525.289 623.256 524.979 622.956 524.979 622.576 524.979 622.386 525.049 622.216 525.179 622.096 525.299 621.975 525.469 621.895 525.659 621.895L529.1 621.895C529.47 621.895 529.78 622.195 529.78 622.576Z" stroke="#1D1D1B" stroke-width="0.500103" stroke-miterlimit="10" fill="none"/><path d="M526.35 602.511 530.19 602.511 530.19 607.943 526.35 607.943Z" stroke="#1D1D1B" stroke-width="0.500103" stroke-miterlimit="10" fill="none"/><path d="M537.612 602.932 536.832 607.943 533.391 607.943 532.961 607.873 533.821 602.291 535.331 602.542 536.162 602.682 537.612 602.932Z" stroke="#1D1D1B" stroke-width="0.500103" stroke-miterlimit="10" fill="none"/><path d="M552.765 601.841C552.765 603.592 551.405 605.002 549.734 605.002 548.914 605.002 548.174 604.662 547.634 604.112 547.064 603.532 546.704 602.732 546.704 601.831 546.704 600.081 548.064 598.671 549.734 598.671 551.405 598.671 552.765 600.081 552.765 601.831Z" stroke="#1D1D1B" stroke-width="0.500103" stroke-miterlimit="10" fill="none"/><path d="M472.749 612.774 517.758 612.484" stroke="#F7931E" stroke-width="1.00021" stroke-miterlimit="10" fill="none"/><path d="M517.758 612.584 510.666 607.853 510.666 617.315 517.758 612.584Z" stroke="#F7931E" stroke-width="1.00021" stroke-miterlimit="10" fill="none"/><text fill="#F7931E" font-family="Ermilov,Ermilov_MSFontService,sans-serif" font-weight="700" font-size="10" transform="matrix(1.00021 0 0 1.00021 474.749 610)">35 </text><text fill="#F7931E" font-family="Ermilov,Ermilov_MSFontService,sans-serif" font-weight="700" font-size="10" transform="matrix(1.00021 0 0 1.00021 491.753 610)">kV</text><path d="M602.685 607.943 598.794 607.943 598.044 602.842 599.245 602.651 600.085 602.521 601.845 602.231 602.685 607.943Z" stroke="#1D1D1B" stroke-width="0.500103" stroke-miterlimit="10" fill="none"/><path d="M600.085 602.521 599.245 602.651 597.894 593.49 598.734 593.35 600.085 602.521Z" stroke="#1D1D1B" stroke-width="0.500103" stroke-miterlimit="10" fill="none"/><path d="M606.866 593.17 607.716 593.17 607.716 602.511 606.866 602.511Z" stroke="#1D1D1B" stroke-width="0.500103" stroke-miterlimit="10" fill="none"/><path d="M616.598 593.5 615.178 602.682 614.348 602.542 615.758 593.36 616.598 593.5Z" stroke="#1D1D1B" stroke-width="0.500103" stroke-miterlimit="10" fill="none"/><path d="M609.217 622.576C609.217 623.266 608.677 623.826 608.016 623.826 607.596 623.826 607.216 623.596 607.006 623.246L608.116 623.246C608.306 623.246 608.477 623.166 608.596 623.046 608.717 622.926 608.797 622.756 608.797 622.566 608.797 622.195 608.497 621.885 608.116 621.885L607.006 621.885C607.006 621.885 607.026 621.845 607.046 621.825 607.266 621.515 607.616 621.305 608.016 621.305 608.677 621.305 609.217 621.865 609.217 622.556Z" stroke="#1D1D1B" stroke-width="0.500103" stroke-miterlimit="10" fill="none"/><path d="M604.676 623.246 605.716 623.246C605.506 623.596 605.136 623.826 604.706 623.826 604.046 623.826 603.505 623.266 603.505 622.576 603.505 621.885 604.046 621.325 604.706 621.325 605.126 621.325 605.506 621.555 605.716 621.905L604.676 621.905C604.486 621.905 604.316 621.975 604.196 622.105 604.076 622.226 603.996 622.396 603.996 622.586 603.996 622.956 604.296 623.266 604.676 623.266Z" stroke="#1D1D1B" stroke-width="0.500103" stroke-miterlimit="10" fill="none"/><path d="M605.746 620.995 607.036 620.995 607.036 621.895 605.746 621.895Z" stroke="#1D1D1B" stroke-width="0.500103" stroke-miterlimit="10" fill="none"/><path d="M620.629 622.626C620.629 623.316 620.099 623.876 619.429 623.876 619.009 623.876 618.639 623.646 618.419 623.296L619.529 623.296C619.719 623.296 619.889 623.226 620.009 623.096 620.129 622.976 620.209 622.806 620.209 622.616 620.209 622.246 619.909 621.935 619.529 621.935L618.419 621.935C618.419 621.935 618.439 621.895 618.459 621.875 618.679 621.565 619.029 621.355 619.429 621.355 620.089 621.355 620.629 621.915 620.629 622.606Z" stroke="#1D1D1B" stroke-width="0.500103" stroke-miterlimit="10" fill="none"/><path d="M628.751 605.012 627.62 607.943 625.18 607.943 626.65 604.122C627.2 604.672 627.931 605.012 628.751 605.012Z" stroke="#1D1D1B" stroke-width="0.500103" stroke-miterlimit="10" fill="none"/><path d="M616.098 623.306 617.138 623.306C616.928 623.656 616.558 623.886 616.128 623.886 615.468 623.886 614.928 623.326 614.928 622.636 614.928 621.945 615.468 621.385 616.128 621.385 616.548 621.385 616.928 621.615 617.138 621.965L616.098 621.965C615.908 621.965 615.738 622.045 615.618 622.166 615.498 622.286 615.418 622.456 615.418 622.646 615.418 623.016 615.718 623.326 616.098 623.326Z" stroke="#1D1D1B" stroke-width="0.500103" stroke-miterlimit="10" fill="none"/><path d="M617.168 620.995 618.459 620.995 618.459 621.955 617.168 621.955Z" stroke="#1D1D1B" stroke-width="0.500103" stroke-miterlimit="10" fill="none"/><path d="M627.75 607.943 627.75 620.995 598.745 620.995 598.745 610.213C598.745 609.933 598.724 609.883 598.745 609.653 598.774 609.383 598.784 608.833 598.745 607.943L627.75 607.943Z" stroke="#1D1D1B" stroke-width="0.500103" stroke-miterlimit="10" fill="none"/><path d="M620.219 622.626C620.219 622.816 620.149 622.986 620.019 623.106 619.899 623.226 619.729 623.306 619.539 623.306L616.098 623.306C615.728 623.306 615.418 623.006 615.418 622.626 615.418 622.446 615.488 622.266 615.618 622.146 615.738 622.026 615.908 621.945 616.098 621.945L619.539 621.945C619.909 621.945 620.219 622.246 620.219 622.626Z" stroke="#1D1D1B" stroke-width="0.500103" stroke-miterlimit="10" fill="none"/><path d="M608.797 622.576C608.797 622.756 608.727 622.936 608.596 623.056 608.477 623.176 608.306 623.256 608.116 623.256L604.676 623.256C604.306 623.256 603.996 622.956 603.996 622.576 603.996 622.386 604.066 622.216 604.196 622.096 604.316 621.975 604.486 621.895 604.676 621.895L608.116 621.895C608.487 621.895 608.797 622.195 608.797 622.576Z" stroke="#1D1D1B" stroke-width="0.500103" stroke-miterlimit="10" fill="none"/><path d="M605.366 602.511 609.207 602.511 609.207 607.943 605.366 607.943Z" stroke="#1D1D1B" stroke-width="0.500103" stroke-miterlimit="10" fill="none"/><path d="M616.628 602.932 615.848 607.943 612.407 607.943 611.977 607.873 612.837 602.291 614.348 602.542 615.178 602.682 616.628 602.932Z" stroke="#1D1D1B" stroke-width="0.500103" stroke-miterlimit="10" fill="none"/><path d="M631.781 601.841C631.781 603.592 630.421 605.002 628.751 605.002 627.931 605.002 627.19 604.662 626.65 604.112 626.08 603.532 625.72 602.732 625.72 601.831 625.72 600.081 627.08 598.671 628.751 598.671 630.421 598.671 631.781 600.081 631.781 601.831Z" stroke="#1D1D1B" stroke-width="0.500103" stroke-miterlimit="10" fill="none"/><path d="M551.765 612.774 596.774 612.484" stroke="#F7931E" stroke-width="1.00021" stroke-miterlimit="10" fill="none"/><path d="M596.774 612.584 589.683 607.853 589.683 617.315 596.774 612.584Z" stroke="#F7931E" stroke-width="1.00021" stroke-miterlimit="10" fill="none"/><text fill="#F7931E" font-family="Ermilov,Ermilov_MSFontService,sans-serif" font-weight="700" font-size="10" transform="matrix(1.00021 0 0 1.00021 553.765 610)">10 </text><text fill="#F7931E" font-family="Ermilov,Ermilov_MSFontService,sans-serif" font-weight="700" font-size="10" transform="matrix(1.00021 0 0 1.00021 567.768 610)">kV</text><path d="M629.951 612.774 674.96 612.484" stroke="#F7931E" stroke-width="1.00021" stroke-miterlimit="10" fill="none"/><path d="M674.96 612.584 667.869 607.853 667.869 617.315 674.96 612.584Z" stroke="#F7931E" stroke-width="1.00021" stroke-miterlimit="10" fill="none"/><text fill="#F7931E" font-family="Ermilov,Ermilov_MSFontService,sans-serif" font-weight="700" font-size="10" transform="matrix(1.00021 0 0 1.00021 631.951 610)">220 </text><text fill="#F7931E" font-family="Ermilov,Ermilov_MSFontService,sans-serif" font-weight="700" font-size="10" transform="matrix(1.00021 0 0 1.00021 655.956 610)">V</text><path d="M677.451 599.501 707.497 599.501 707.497 621.955 677.451 621.955Z" stroke="#1D1D1B" stroke-width="1.00021" stroke-miterlimit="10" fill="none"/><path d="M692.694 580.517 669.879 599.501 715.498 599.501 692.694 580.517Z" stroke="#1D1D1B" stroke-width="1.00021" stroke-miterlimit="10" fill="none"/><path d="M686.903 604.862 692.694 604.862 692.694 610.653 686.903 610.653Z" stroke="#1D1D1B" stroke-width="0.750154" stroke-miterlimit="10" fill="#FFEC00"/><path d="M692.694 604.862 698.485 604.862 698.485 610.653 692.694 610.653Z" stroke="#1D1D1B" stroke-width="0.750154" stroke-miterlimit="10" fill="#FFEC00"/><path d="M686.903 610.823 692.694 610.823 692.694 616.614 686.903 616.614Z" stroke="#1D1D1B" stroke-width="0.750154" stroke-miterlimit="10" fill="#FFEC00"/><path d="M692.694 610.823 698.485 610.823 698.485 616.614 692.694 616.614Z" stroke="#1D1D1B" stroke-width="0.750154" stroke-miterlimit="10" fill="#FFEC00"/><path d="M314.176 575.246 674.8 575.246" stroke="#39B54A" stroke-width="2.00041" stroke-miterlimit="10" fill="none"/><path d="M675.71 575.296 659.537 564.504 659.537 586.088 675.71 575.296Z" stroke="#39B54A" stroke-width="2.00041" stroke-miterlimit="10" fill="none"/><text fill="#39B54A" font-family="Ermilov,Ermilov_MSFontService,sans-serif" font-weight="700" font-size="21" transform="matrix(1.00021 0 0 1.00021 314.296 569)">Transformers amount</text></g></svg>