<svg width="475" height="146" xmlns="http://www.w3.org/2000/svg" xmlns:xlink="http://www.w3.org/1999/xlink" xml:space="preserve" overflow="hidden"><g transform="translate(-242 -683)"><path d="M281.589 791.972 281.589 792.112C281.559 792.963 281.039 793.703 280.329 794.093 279.999 794.253 279.619 794.363 279.229 794.363 278.819 794.363 278.459 794.253 278.099 794.093 277.388 793.713 276.888 792.963 276.838 792.112L276.838 791.972C276.838 791.122 277.278 790.382 277.939 789.942 278.319 789.722 278.759 789.582 279.229 789.582 279.669 789.582 280.109 789.722 280.469 789.942 281.159 790.352 281.599 791.092 281.599 791.972Z" fill="#1D1D1B"/><path d="M255.884 753.615 303.924 753.615C302.564 760.446 301.453 779.95 302.784 791.362 304.714 807.996 310.895 820.438 315.136 827.51L244.682 827.51C248.923 819.918 254.654 807.356 256.574 790.912 257.854 779.91 257.054 760.626 255.884 753.625Z" stroke="#1D1D1B" stroke-width="3.00062" stroke-miterlimit="10" fill="none"/><path d="M330.99 706.685C330.99 718.957 321.047 728.889 308.785 728.889 306.284 728.889 303.894 728.479 301.673 727.709 300.223 732.87 295.692 736.741 290.171 737.211L290.171 737.261C290.171 742.752 285.7 747.223 280.209 747.223 274.718 747.223 270.217 742.752 270.217 737.261 270.217 733.03 272.828 729.44 276.528 727.979 276.148 726.769 275.948 725.479 275.948 724.138 275.948 719.968 277.869 716.257 280.919 713.876 280.449 713.026 280.209 712.066 280.209 711.046 280.209 707.755 282.87 705.085 286.14 705.085 286.3 705.085 286.5 705.085 286.66 705.115 287.461 693.612 297.063 684.5 308.785 684.5 320.507 684.5 330.99 694.442 330.99 706.685Z" stroke="#1D1D1B" stroke-width="3.00062" stroke-miterlimit="10" fill="none"/><path d="M285.76 803.695C283.89 804.735 281.729 805.345 279.389 805.345 277.048 805.345 274.638 804.655 272.668 803.475L277.228 795.623C277.829 795.953 278.489 796.143 279.229 796.143 279.919 796.143 280.569 795.983 281.119 795.653L285.76 803.695Z" fill="#1D1D1B"/><path d="M283.38 792.142C283.41 792.092 283.41 792.032 283.41 791.982 283.41 790.442 282.61 789.132 281.409 788.412L285.91 780.62C289.941 782.871 292.692 787.181 292.692 792.152L283.39 792.152Z" fill="#1D1D1B"/><path d="M275.028 791.972C275.028 792.022 275.028 792.082 275.058 792.132L266.216 792.132C266.216 787.331 268.767 783.161 272.587 780.82L276.978 788.422C275.798 789.162 275.028 790.452 275.028 791.962Z" fill="#1D1D1B"/><path d="M365.587 792.753 361.696 792.753 360.946 787.661 362.146 787.461 362.986 787.331 364.746 787.051 365.587 792.753Z" stroke="#1D1D1B" stroke-width="0.500103" stroke-miterlimit="10" fill="none"/><path d="M362.986 787.331 362.146 787.461 360.796 778.3 361.636 778.17 362.986 787.331Z" stroke="#1D1D1B" stroke-width="0.500103" stroke-miterlimit="10" fill="none"/><path d="M369.777 777.979 370.628 777.979 370.628 787.321 369.777 787.321Z" stroke="#1D1D1B" stroke-width="0.500103" stroke-miterlimit="10" fill="none"/><path d="M379.499 778.31 378.089 787.501 377.259 787.361 378.669 778.17 379.499 778.31Z" stroke="#1D1D1B" stroke-width="0.500103" stroke-miterlimit="10" fill="none"/><path d="M372.118 807.386C372.118 808.076 371.578 808.636 370.918 808.636 370.498 808.636 370.118 808.406 369.908 808.056L371.018 808.056C371.208 808.056 371.378 807.976 371.498 807.856 371.618 807.736 371.698 807.566 371.698 807.376 371.698 807.005 371.398 806.695 371.018 806.695L369.908 806.695C369.908 806.695 369.927 806.655 369.948 806.635 370.168 806.325 370.518 806.115 370.918 806.115 371.578 806.115 372.118 806.675 372.118 807.366Z" stroke="#1D1D1B" stroke-width="0.500103" stroke-miterlimit="10" fill="none"/><path d="M367.587 808.066 368.627 808.066C368.417 808.416 368.047 808.646 367.617 808.646 366.957 808.646 366.417 808.086 366.417 807.396 366.417 806.705 366.957 806.145 367.617 806.145 368.037 806.145 368.417 806.375 368.627 806.725L367.587 806.725C367.397 806.725 367.227 806.795 367.107 806.925 366.987 807.045 366.907 807.216 366.907 807.406 366.907 807.776 367.207 808.086 367.587 808.086Z" stroke="#1D1D1B" stroke-width="0.500103" stroke-miterlimit="10" fill="none"/><path d="M368.657 805.805 369.948 805.805 369.948 806.705 368.657 806.705Z" stroke="#1D1D1B" stroke-width="0.500103" stroke-miterlimit="10" fill="none"/><path d="M383.54 807.436C383.54 808.126 383.01 808.686 382.34 808.686 381.92 808.686 381.55 808.456 381.33 808.106L382.44 808.106C382.63 808.106 382.8 808.036 382.92 807.906 383.04 807.786 383.12 807.616 383.12 807.426 383.12 807.055 382.82 806.745 382.44 806.745L381.33 806.745C381.33 806.745 381.35 806.705 381.37 806.685 381.59 806.375 381.94 806.165 382.34 806.165 383 806.165 383.54 806.725 383.54 807.416Z" stroke="#1D1D1B" stroke-width="0.500103" stroke-miterlimit="10" fill="none"/><path d="M391.662 789.822 390.532 792.753 388.091 792.753 389.562 788.932C390.112 789.482 390.842 789.822 391.662 789.822Z" stroke="#1D1D1B" stroke-width="0.500103" stroke-miterlimit="10" fill="none"/><path d="M378.999 808.116 380.04 808.116C379.83 808.466 379.459 808.696 379.029 808.696 378.369 808.696 377.829 808.136 377.829 807.446 377.829 806.755 378.369 806.195 379.029 806.195 379.449 806.195 379.83 806.425 380.04 806.775L378.999 806.775C378.809 806.775 378.639 806.855 378.519 806.975 378.399 807.096 378.319 807.266 378.319 807.456 378.319 807.826 378.619 808.136 378.999 808.136Z" stroke="#1D1D1B" stroke-width="0.500103" stroke-miterlimit="10" fill="none"/><path d="M380.08 805.805 381.37 805.805 381.37 806.765 380.08 806.765Z" stroke="#1D1D1B" stroke-width="0.500103" stroke-miterlimit="10" fill="none"/><path d="M390.662 792.753 390.662 805.805 361.656 805.805 361.656 795.023C361.656 794.743 361.636 794.693 361.656 794.463 361.686 794.193 361.696 793.643 361.656 792.753L390.662 792.753Z" stroke="#1D1D1B" stroke-width="0.500103" stroke-miterlimit="10" fill="none"/><path d="M383.12 807.436C383.12 807.626 383.05 807.796 382.92 807.916 382.8 808.036 382.63 808.116 382.44 808.116L378.999 808.116C378.629 808.116 378.319 807.816 378.319 807.436 378.319 807.256 378.389 807.076 378.519 806.955 378.639 806.835 378.809 806.755 378.999 806.755L382.44 806.755C382.81 806.755 383.12 807.055 383.12 807.436Z" stroke="#1D1D1B" stroke-width="0.500103" stroke-miterlimit="10" fill="none"/><path d="M371.698 807.386C371.698 807.566 371.628 807.746 371.498 807.866 371.378 807.986 371.208 808.066 371.018 808.066L367.577 808.066C367.207 808.066 366.897 807.766 366.897 807.386 366.897 807.195 366.967 807.026 367.097 806.905 367.217 806.785 367.387 806.705 367.577 806.705L371.018 806.705C371.388 806.705 371.698 807.005 371.698 807.386Z" stroke="#1D1D1B" stroke-width="0.500103" stroke-miterlimit="10" fill="none"/><path d="M368.277 787.321 372.118 787.321 372.118 792.753 368.277 792.753Z" stroke="#1D1D1B" stroke-width="0.500103" stroke-miterlimit="10" fill="none"/><path d="M379.529 787.742 378.759 792.753 375.309 792.753 374.889 792.683 375.739 787.101 377.259 787.361 378.089 787.501 379.529 787.742Z" stroke="#1D1D1B" stroke-width="0.500103" stroke-miterlimit="10" fill="none"/><path d="M394.693 786.661C394.693 788.412 393.332 789.822 391.662 789.822 390.842 789.822 390.102 789.482 389.562 788.932 388.991 788.352 388.631 787.552 388.631 786.651 388.631 784.901 389.992 783.491 391.662 783.491 393.332 783.491 394.693 784.901 394.693 786.651Z" stroke="#1D1D1B" stroke-width="0.500103" stroke-miterlimit="10" fill="none"/><path d="M313.676 798.024 358.685 797.724" stroke="#F7931E" stroke-width="1.00021" stroke-miterlimit="10" fill="none"/><path d="M358.685 797.834 351.584 793.103 351.584 802.565 358.685 797.834Z" stroke="#F7931E" stroke-width="1.00021" stroke-miterlimit="10" fill="none"/><text fill="#F7931E" font-family="Ermilov,Ermilov_MSFontService,sans-serif" font-weight="700" font-size="10" transform="matrix(1.00021 0 0 1.00021 313.676 795)">330 </text><text fill="#F7931E" font-family="Ermilov,Ermilov_MSFontService,sans-serif" font-weight="700" font-size="10" transform="matrix(1.00021 0 0 1.00021 337.681 795)">kV</text><path d="M445.153 792.943 441.252 792.943 440.512 787.842 441.712 787.651 442.542 787.521 444.303 787.231 445.153 792.943Z" stroke="#1D1D1B" stroke-width="0.500103" stroke-miterlimit="10" fill="none"/><path d="M442.542 787.521 441.712 787.651 440.362 778.49 441.192 778.35 442.542 787.521Z" stroke="#1D1D1B" stroke-width="0.500103" stroke-miterlimit="10" fill="none"/><path d="M449.334 778.17 450.184 778.17 450.184 787.511 449.334 787.511Z" stroke="#1D1D1B" stroke-width="0.500103" stroke-miterlimit="10" fill="none"/><path d="M459.056 778.5 457.646 787.682 456.815 787.542 458.226 778.36 459.056 778.5Z" stroke="#1D1D1B" stroke-width="0.500103" stroke-miterlimit="10" fill="none"/><path d="M451.684 807.576C451.684 808.266 451.144 808.826 450.484 808.826 450.064 808.826 449.684 808.596 449.474 808.246L450.584 808.246C450.774 808.246 450.944 808.166 451.064 808.046 451.184 807.926 451.264 807.756 451.264 807.566 451.264 807.195 450.964 806.885 450.584 806.885L449.474 806.885C449.474 806.885 449.494 806.845 449.514 806.825 449.734 806.515 450.084 806.305 450.484 806.305 451.144 806.305 451.684 806.865 451.684 807.556Z" stroke="#1D1D1B" stroke-width="0.500103" stroke-miterlimit="10" fill="none"/><path d="M447.143 808.246 448.184 808.246C447.974 808.596 447.603 808.826 447.173 808.826 446.513 808.826 445.973 808.266 445.973 807.576 445.973 806.885 446.513 806.325 447.173 806.325 447.593 806.325 447.974 806.555 448.184 806.905L447.143 806.905C446.953 806.905 446.783 806.975 446.663 807.105 446.543 807.226 446.463 807.396 446.463 807.586 446.463 807.956 446.763 808.266 447.143 808.266Z" stroke="#1D1D1B" stroke-width="0.500103" stroke-miterlimit="10" fill="none"/><path d="M448.214 805.995 449.504 805.995 449.504 806.895 448.214 806.895Z" stroke="#1D1D1B" stroke-width="0.500103" stroke-miterlimit="10" fill="none"/><path d="M463.097 807.626C463.097 808.316 462.567 808.876 461.896 808.876 461.476 808.876 461.106 808.646 460.886 808.296L461.996 808.296C462.186 808.296 462.357 808.226 462.477 808.096 462.597 807.976 462.677 807.806 462.677 807.616 462.677 807.246 462.376 806.935 461.996 806.935L460.886 806.935C460.886 806.935 460.906 806.895 460.926 806.875 461.146 806.565 461.496 806.355 461.896 806.355 462.557 806.355 463.097 806.915 463.097 807.606Z" stroke="#1D1D1B" stroke-width="0.500103" stroke-miterlimit="10" fill="none"/><path d="M471.218 790.012 470.088 792.943 467.648 792.943 469.118 789.122C469.668 789.672 470.398 790.012 471.218 790.012Z" stroke="#1D1D1B" stroke-width="0.500103" stroke-miterlimit="10" fill="none"/><path d="M458.566 808.306 459.606 808.306C459.396 808.656 459.026 808.886 458.596 808.886 457.936 808.886 457.395 808.326 457.395 807.636 457.395 806.945 457.936 806.385 458.596 806.385 459.016 806.385 459.396 806.615 459.606 806.965L458.566 806.965C458.376 806.965 458.206 807.045 458.086 807.166 457.966 807.286 457.886 807.456 457.886 807.646 457.886 808.016 458.186 808.326 458.566 808.326Z" stroke="#1D1D1B" stroke-width="0.500103" stroke-miterlimit="10" fill="none"/><path d="M459.636 805.995 460.926 805.995 460.926 806.955 459.636 806.955Z" stroke="#1D1D1B" stroke-width="0.500103" stroke-miterlimit="10" fill="none"/><path d="M470.218 792.943 470.218 805.995 441.212 805.995 441.212 795.213C441.212 794.933 441.192 794.883 441.212 794.653 441.242 794.383 441.252 793.833 441.212 792.943L470.218 792.943Z" stroke="#1D1D1B" stroke-width="0.500103" stroke-miterlimit="10" fill="none"/><path d="M462.677 807.626C462.677 807.816 462.607 807.986 462.477 808.106 462.357 808.226 462.186 808.306 461.996 808.306L458.556 808.306C458.186 808.306 457.876 808.006 457.876 807.626 457.876 807.446 457.946 807.266 458.076 807.146 458.196 807.026 458.366 806.945 458.556 806.945L461.996 806.945C462.366 806.945 462.677 807.246 462.677 807.626Z" stroke="#1D1D1B" stroke-width="0.500103" stroke-miterlimit="10" fill="none"/><path d="M451.264 807.576C451.264 807.756 451.194 807.936 451.064 808.056 450.944 808.176 450.774 808.256 450.584 808.256L447.143 808.256C446.773 808.256 446.463 807.956 446.463 807.576 446.463 807.386 446.533 807.216 446.663 807.096 446.783 806.975 446.953 806.895 447.143 806.895L450.584 806.895C450.954 806.895 451.264 807.195 451.264 807.576Z" stroke="#1D1D1B" stroke-width="0.500103" stroke-miterlimit="10" fill="none"/><path d="M447.833 787.511 451.674 787.511 451.674 792.943 447.833 792.943Z" stroke="#1D1D1B" stroke-width="0.500103" stroke-miterlimit="10" fill="none"/><path d="M459.086 787.932 458.316 792.943 454.875 792.943 454.445 792.873 455.305 787.291 456.815 787.542 457.646 787.682 459.086 787.932Z" stroke="#1D1D1B" stroke-width="0.500103" stroke-miterlimit="10" fill="none"/><path d="M474.249 786.841C474.249 788.592 472.889 790.002 471.218 790.002 470.398 790.002 469.658 789.662 469.118 789.112 468.548 788.532 468.188 787.732 468.188 786.831 468.188 785.081 469.548 783.671 471.218 783.671 472.889 783.671 474.249 785.081 474.249 786.831Z" stroke="#1D1D1B" stroke-width="0.500103" stroke-miterlimit="10" fill="none"/><path d="M394.232 797.774 439.242 797.484" stroke="#F7931E" stroke-width="1.00021" stroke-miterlimit="10" fill="none"/><path d="M439.242 797.584 432.15 792.853 432.15 802.315 439.242 797.584Z" stroke="#F7931E" stroke-width="1.00021" stroke-miterlimit="10" fill="none"/><text fill="#F7931E" font-family="Ermilov,Ermilov_MSFontService,sans-serif" font-weight="700" font-size="10" transform="matrix(1.00021 0 0 1.00021 396.233 795)">110 </text><text fill="#F7931E" font-family="Ermilov,Ermilov_MSFontService,sans-serif" font-weight="700" font-size="10" transform="matrix(1.00021 0 0 1.00021 414.237 795)">kV</text><path d="M523.669 792.943 519.778 792.943 519.028 787.842 520.228 787.651 521.069 787.521 522.829 787.231 523.669 792.943Z" stroke="#1D1D1B" stroke-width="0.500103" stroke-miterlimit="10" fill="none"/><path d="M521.069 787.521 520.228 787.651 518.878 778.49 519.718 778.35 521.069 787.521Z" stroke="#1D1D1B" stroke-width="0.500103" stroke-miterlimit="10" fill="none"/><path d="M527.85 778.17 528.7 778.17 528.7 787.511 527.85 787.511Z" stroke="#1D1D1B" stroke-width="0.500103" stroke-miterlimit="10" fill="none"/><path d="M537.582 778.5 536.162 787.682 535.331 787.542 536.742 778.36 537.582 778.5Z" stroke="#1D1D1B" stroke-width="0.500103" stroke-miterlimit="10" fill="none"/><path d="M530.2 807.576C530.2 808.266 529.66 808.826 529 808.826 528.58 808.826 528.2 808.596 527.99 808.246L529.1 808.246C529.29 808.246 529.46 808.166 529.58 808.046 529.7 807.926 529.78 807.756 529.78 807.566 529.78 807.195 529.48 806.885 529.1 806.885L527.99 806.885C527.99 806.885 528.01 806.845 528.03 806.825 528.25 806.515 528.6 806.305 529 806.305 529.66 806.305 530.2 806.865 530.2 807.556Z" stroke="#1D1D1B" stroke-width="0.500103" stroke-miterlimit="10" fill="none"/><path d="M525.659 808.246 526.7 808.246C526.49 808.596 526.12 808.826 525.69 808.826 525.029 808.826 524.489 808.266 524.489 807.576 524.489 806.885 525.029 806.325 525.69 806.325 526.11 806.325 526.49 806.555 526.7 806.905L525.659 806.905C525.469 806.905 525.299 806.975 525.179 807.105 525.059 807.226 524.979 807.396 524.979 807.586 524.979 807.956 525.279 808.266 525.659 808.266Z" stroke="#1D1D1B" stroke-width="0.500103" stroke-miterlimit="10" fill="none"/><path d="M526.73 805.995 528.02 805.995 528.02 806.895 526.73 806.895Z" stroke="#1D1D1B" stroke-width="0.500103" stroke-miterlimit="10" fill="none"/><path d="M541.613 807.626C541.613 808.316 541.083 808.876 540.413 808.876 539.992 808.876 539.622 808.646 539.402 808.296L540.513 808.296C540.703 808.296 540.873 808.226 540.993 808.096 541.113 807.976 541.193 807.806 541.193 807.616 541.193 807.246 540.893 806.935 540.513 806.935L539.402 806.935C539.402 806.935 539.422 806.895 539.442 806.875 539.662 806.565 540.012 806.355 540.413 806.355 541.073 806.355 541.613 806.915 541.613 807.606Z" stroke="#1D1D1B" stroke-width="0.500103" stroke-miterlimit="10" fill="none"/><path d="M549.734 790.012 548.604 792.943 546.164 792.943 547.634 789.122C548.184 789.672 548.914 790.012 549.734 790.012Z" stroke="#1D1D1B" stroke-width="0.500103" stroke-miterlimit="10" fill="none"/><path d="M537.082 808.306 538.122 808.306C537.912 808.656 537.542 808.886 537.112 808.886 536.452 808.886 535.912 808.326 535.912 807.636 535.912 806.945 536.452 806.385 537.112 806.385 537.532 806.385 537.912 806.615 538.122 806.965L537.082 806.965C536.892 806.965 536.722 807.045 536.602 807.166 536.482 807.286 536.402 807.456 536.402 807.646 536.402 808.016 536.702 808.326 537.082 808.326Z" stroke="#1D1D1B" stroke-width="0.500103" stroke-miterlimit="10" fill="none"/><path d="M538.152 805.995 539.442 805.995 539.442 806.955 538.152 806.955Z" stroke="#1D1D1B" stroke-width="0.500103" stroke-miterlimit="10" fill="none"/><path d="M548.734 792.943 548.734 805.995 519.728 805.995 519.728 795.213C519.728 794.933 519.708 794.883 519.728 794.653 519.758 794.383 519.768 793.833 519.728 792.943L548.734 792.943Z" stroke="#1D1D1B" stroke-width="0.500103" stroke-miterlimit="10" fill="none"/><path d="M541.203 807.626C541.203 807.816 541.133 807.986 541.003 808.106 540.883 808.226 540.713 808.306 540.523 808.306L537.082 808.306C536.712 808.306 536.402 808.006 536.402 807.626 536.402 807.446 536.472 807.266 536.602 807.146 536.722 807.026 536.892 806.945 537.082 806.945L540.523 806.945C540.893 806.945 541.203 807.246 541.203 807.626Z" stroke="#1D1D1B" stroke-width="0.500103" stroke-miterlimit="10" fill="none"/><path d="M529.78 807.576C529.78 807.756 529.71 807.936 529.58 808.056 529.46 808.176 529.29 808.256 529.1 808.256L525.659 808.256C525.289 808.256 524.979 807.956 524.979 807.576 524.979 807.386 525.049 807.216 525.179 807.096 525.299 806.975 525.469 806.895 525.659 806.895L529.1 806.895C529.47 806.895 529.78 807.195 529.78 807.576Z" stroke="#1D1D1B" stroke-width="0.500103" stroke-miterlimit="10" fill="none"/><path d="M526.35 787.511 530.19 787.511 530.19 792.943 526.35 792.943Z" stroke="#1D1D1B" stroke-width="0.500103" stroke-miterlimit="10" fill="none"/><path d="M537.612 787.932 536.832 792.943 533.391 792.943 532.961 792.873 533.821 787.291 535.331 787.542 536.162 787.682 537.612 787.932Z" stroke="#1D1D1B" stroke-width="0.500103" stroke-miterlimit="10" fill="none"/><path d="M552.765 786.841C552.765 788.592 551.405 790.002 549.734 790.002 548.914 790.002 548.174 789.662 547.634 789.112 547.064 788.532 546.704 787.732 546.704 786.831 546.704 785.081 548.064 783.671 549.734 783.671 551.405 783.671 552.765 785.081 552.765 786.831Z" stroke="#1D1D1B" stroke-width="0.500103" stroke-miterlimit="10" fill="none"/><path d="M472.749 797.774 517.758 797.484" stroke="#F7931E" stroke-width="1.00021" stroke-miterlimit="10" fill="none"/><path d="M517.758 797.584 510.666 792.853 510.666 802.315 517.758 797.584Z" stroke="#F7931E" stroke-width="1.00021" stroke-miterlimit="10" fill="none"/><text fill="#F7931E" font-family="Ermilov,Ermilov_MSFontService,sans-serif" font-weight="700" font-size="10" transform="matrix(1.00021 0 0 1.00021 474.749 795)">35 </text><text fill="#F7931E" font-family="Ermilov,Ermilov_MSFontService,sans-serif" font-weight="700" font-size="10" transform="matrix(1.00021 0 0 1.00021 491.753 795)">kV</text><path d="M602.685 792.943 598.794 792.943 598.044 787.842 599.245 787.651 600.085 787.521 601.845 787.231 602.685 792.943Z" stroke="#1D1D1B" stroke-width="0.500103" stroke-miterlimit="10" fill="none"/><path d="M600.085 787.521 599.245 787.651 597.894 778.49 598.734 778.35 600.085 787.521Z" stroke="#1D1D1B" stroke-width="0.500103" stroke-miterlimit="10" fill="none"/><path d="M606.866 778.17 607.716 778.17 607.716 787.511 606.866 787.511Z" stroke="#1D1D1B" stroke-width="0.500103" stroke-miterlimit="10" fill="none"/><path d="M616.598 778.5 615.178 787.682 614.348 787.542 615.758 778.36 616.598 778.5Z" stroke="#1D1D1B" stroke-width="0.500103" stroke-miterlimit="10" fill="none"/><path d="M609.217 807.576C609.217 808.266 608.677 808.826 608.016 808.826 607.596 808.826 607.216 808.596 607.006 808.246L608.116 808.246C608.306 808.246 608.477 808.166 608.596 808.046 608.717 807.926 608.797 807.756 608.797 807.566 608.797 807.195 608.497 806.885 608.116 806.885L607.006 806.885C607.006 806.885 607.026 806.845 607.046 806.825 607.266 806.515 607.616 806.305 608.016 806.305 608.677 806.305 609.217 806.865 609.217 807.556Z" stroke="#1D1D1B" stroke-width="0.500103" stroke-miterlimit="10" fill="none"/><path d="M604.676 808.246 605.716 808.246C605.506 808.596 605.136 808.826 604.706 808.826 604.046 808.826 603.505 808.266 603.505 807.576 603.505 806.885 604.046 806.325 604.706 806.325 605.126 806.325 605.506 806.555 605.716 806.905L604.676 806.905C604.486 806.905 604.316 806.975 604.196 807.105 604.076 807.226 603.996 807.396 603.996 807.586 603.996 807.956 604.296 808.266 604.676 808.266Z" stroke="#1D1D1B" stroke-width="0.500103" stroke-miterlimit="10" fill="none"/><path d="M605.746 805.995 607.036 805.995 607.036 806.895 605.746 806.895Z" stroke="#1D1D1B" stroke-width="0.500103" stroke-miterlimit="10" fill="none"/><path d="M620.629 807.626C620.629 808.316 620.099 808.876 619.429 808.876 619.009 808.876 618.639 808.646 618.419 808.296L619.529 808.296C619.719 808.296 619.889 808.226 620.009 808.096 620.129 807.976 620.209 807.806 620.209 807.616 620.209 807.246 619.909 806.935 619.529 806.935L618.419 806.935C618.419 806.935 618.439 806.895 618.459 806.875 618.679 806.565 619.029 806.355 619.429 806.355 620.089 806.355 620.629 806.915 620.629 807.606Z" stroke="#1D1D1B" stroke-width="0.500103" stroke-miterlimit="10" fill="none"/><path d="M628.751 790.012 627.62 792.943 625.18 792.943 626.65 789.122C627.2 789.672 627.931 790.012 628.751 790.012Z" stroke="#1D1D1B" stroke-width="0.500103" stroke-miterlimit="10" fill="none"/><path d="M616.098 808.306 617.138 808.306C616.928 808.656 616.558 808.886 616.128 808.886 615.468 808.886 614.928 808.326 614.928 807.636 614.928 806.945 615.468 806.385 616.128 806.385 616.548 806.385 616.928 806.615 617.138 806.965L616.098 806.965C615.908 806.965 615.738 807.045 615.618 807.166 615.498 807.286 615.418 807.456 615.418 807.646 615.418 808.016 615.718 808.326 616.098 808.326Z" stroke="#1D1D1B" stroke-width="0.500103" stroke-miterlimit="10" fill="none"/><path d="M617.168 805.995 618.459 805.995 618.459 806.955 617.168 806.955Z" stroke="#1D1D1B" stroke-width="0.500103" stroke-miterlimit="10" fill="none"/><path d="M627.75 792.943 627.75 805.995 598.745 805.995 598.745 795.213C598.745 794.933 598.724 794.883 598.745 794.653 598.774 794.383 598.784 793.833 598.745 792.943L627.75 792.943Z" stroke="#1D1D1B" stroke-width="0.500103" stroke-miterlimit="10" fill="none"/><path d="M620.219 807.626C620.219 807.816 620.149 807.986 620.019 808.106 619.899 808.226 619.729 808.306 619.539 808.306L616.098 808.306C615.728 808.306 615.418 808.006 615.418 807.626 615.418 807.446 615.488 807.266 615.618 807.146 615.738 807.026 615.908 806.945 616.098 806.945L619.539 806.945C619.909 806.945 620.219 807.246 620.219 807.626Z" stroke="#1D1D1B" stroke-width="0.500103" stroke-miterlimit="10" fill="none"/><path d="M608.797 807.576C608.797 807.756 608.727 807.936 608.596 808.056 608.477 808.176 608.306 808.256 608.116 808.256L604.676 808.256C604.306 808.256 603.996 807.956 603.996 807.576 603.996 807.386 604.066 807.216 604.196 807.096 604.316 806.975 604.486 806.895 604.676 806.895L608.116 806.895C608.487 806.895 608.797 807.195 608.797 807.576Z" stroke="#1D1D1B" stroke-width="0.500103" stroke-miterlimit="10" fill="none"/><path d="M605.366 787.511 609.207 787.511 609.207 792.943 605.366 792.943Z" stroke="#1D1D1B" stroke-width="0.500103" stroke-miterlimit="10" fill="none"/><path d="M616.628 787.932 615.848 792.943 612.407 792.943 611.977 792.873 612.837 787.291 614.348 787.542 615.178 787.682 616.628 787.932Z" stroke="#1D1D1B" stroke-width="0.500103" stroke-miterlimit="10" fill="none"/><path d="M631.781 786.841C631.781 788.592 630.421 790.002 628.751 790.002 627.931 790.002 627.19 789.662 626.65 789.112 626.08 788.532 625.72 787.732 625.72 786.831 625.72 785.081 627.08 783.671 628.751 783.671 630.421 783.671 631.781 785.081 631.781 786.831Z" stroke="#1D1D1B" stroke-width="0.500103" stroke-miterlimit="10" fill="none"/><path d="M551.765 797.774 596.774 797.484" stroke="#F7931E" stroke-width="1.00021" stroke-miterlimit="10" fill="none"/><path d="M596.774 797.584 589.683 792.853 589.683 802.315 596.774 797.584Z" stroke="#F7931E" stroke-width="1.00021" stroke-miterlimit="10" fill="none"/><text fill="#F7931E" font-family="Ermilov,Ermilov_MSFontService,sans-serif" font-weight="700" font-size="10" transform="matrix(1.00021 0 0 1.00021 553.765 795)">10 </text><text fill="#F7931E" font-family="Ermilov,Ermilov_MSFontService,sans-serif" font-weight="700" font-size="10" transform="matrix(1.00021 0 0 1.00021 567.768 795)">kV</text><path d="M629.951 797.774 674.96 797.484" stroke="#F7931E" stroke-width="1.00021" stroke-miterlimit="10" fill="none"/><path d="M674.96 797.584 667.869 792.853 667.869 802.315 674.96 797.584Z" stroke="#F7931E" stroke-width="1.00021" stroke-miterlimit="10" fill="none"/><text fill="#F7931E" font-family="Ermilov,Ermilov_MSFontService,sans-serif" font-weight="700" font-size="10" transform="matrix(1.00021 0 0 1.00021 631.951 795)">220 </text><text fill="#F7931E" font-family="Ermilov,Ermilov_MSFontService,sans-serif" font-weight="700" font-size="10" transform="matrix(1.00021 0 0 1.00021 655.956 795)">V</text><path d="M677.451 784.501 707.497 784.501 707.497 806.955 677.451 806.955Z" stroke="#1D1D1B" stroke-width="1.00021" stroke-miterlimit="10" fill="none"/><path d="M692.694 765.517 669.879 784.501 715.498 784.501 692.694 765.517Z" stroke="#1D1D1B" stroke-width="1.00021" stroke-miterlimit="10" fill="none"/><path d="M686.903 789.862 692.694 789.862 692.694 795.653 686.903 795.653Z" stroke="#1D1D1B" stroke-width="0.750154" stroke-miterlimit="10" fill="#FFEC00"/><path d="M692.694 789.862 698.485 789.862 698.485 795.653 692.694 795.653Z" stroke="#1D1D1B" stroke-width="0.750154" stroke-miterlimit="10" fill="#FFEC00"/><path d="M686.903 795.823 692.694 795.823 692.694 801.614 686.903 801.614Z" stroke="#1D1D1B" stroke-width="0.750154" stroke-miterlimit="10" fill="#FFEC00"/><path d="M692.694 795.823 698.485 795.823 698.485 801.614 692.694 801.614Z" stroke="#1D1D1B" stroke-width="0.750154" stroke-miterlimit="10" fill="#FFEC00"/><path d="M314.176 760.246 674.8 760.246" stroke="#39B54A" stroke-width="2.00041" stroke-miterlimit="10" fill="none"/><text fill="#39B54A" font-family="Ermilov,Ermilov_MSFontService,sans-serif" font-weight="700" font-size="21" transform="matrix(1.00021 0 0 1.00021 314.296 754)">Кількість трансформаторів</text><path d="M675.92 760.406 659.747 749.614 659.747 771.198 675.92 760.406Z" stroke="#39B54A" stroke-width="2.00041" stroke-miterlimit="10" fill="none"/></g></svg>